<svg xmlns="http://www.w3.org/2000/svg" version="1.1" xmlns:xlink="http://www.w3.org/1999/xlink" xmlns:svgjs="http://svgjs.com/svgjs" width="500.000000pt" height="500.000000pt"><svg version="1.0" xmlns="http://www.w3.org/2000/svg" width="500.000000pt" height="500.000000pt" viewBox="0 0 500.000000 500.000000" preserveAspectRatio="xMidYMid meet">

<g transform="translate(0.000000,500.000000) scale(0.100000,-0.100000)" fill="#000000" stroke="none">
<path d="M1619 3951 l-29 -29 0 -931 0 -931 -200 0 -200 0 0 155 c0 150 -1
157 -23 179 -21 21 -37 25 -128 31 -57 4 -189 5 -292 3 l-189 -3 -24 -28 -24
-28 0 -450 0 -450 24 -24 c13 -13 39 -26 57 -30 19 -3 402 -5 851 -3 l816 3
26 24 26 24 0 1228 c0 675 -3 1235 -6 1244 -16 41 -49 45 -359 45 l-297 0 -29
-29z"></path>
<path d="M2680 3967 c-13 -7 -35 -28 -47 -46 l-23 -34 0 -1184 c0 -1288 -3
-1229 56 -1268 27 -19 51 -20 317 -23 l289 -3 -16 23 c-14 20 -16 85 -16 568
0 529 1 546 20 578 31 50 71 62 210 62 139 0 179 -12 210 -62 19 -32 20 -49
20 -570 l0 -536 -26 -32 -27 -31 301 3 c286 3 302 4 329 24 15 11 36 36 45 55
17 32 18 110 18 1207 0 1291 3 1222 -62 1262 -32 20 -48 20 -803 20 -596 0
-776 -3 -795 -13z m943 -360 c58 -38 62 -54 62 -263 0 -179 -1 -195 -21 -221
-36 -49 -77 -63 -189 -63 -116 0 -157 15 -187 71 -17 30 -18 54 -16 226 l3
192 30 31 c40 42 73 50 191 47 76 -2 107 -7 127 -20z"></path>
</g>
</svg><style>@media (prefers-color-scheme: light) { :root { filter: none; } }
</style></svg>